<?xml version="1.0" encoding="utf-8"?>
<!-- Generator: Adobe Illustrator 26.0.1, SVG Export Plug-In . SVG Version: 6.00 Build 0)  -->
<svg version="1.1" id="Layer_1" xmlns="http://www.w3.org/2000/svg" xmlns:xlink="http://www.w3.org/1999/xlink" x="0px" y="0px"
	 viewBox="0 0 491 497" style="enable-background:new 0 0 491 497;" xml:space="preserve">
<style type="text/css">
	.st0{fill-rule:evenodd;clip-rule:evenodd;fill:#131316;}
</style>
<g>
	<path class="st0" d="M246.41,107.53c-49.9,0-91.71,37.13-97.86,85.85l-0.14,1.47v0.28l-0.07,0.28c-0.35,2.16-0.49,4.33-0.49,6.56
		v0.77v136.24c0,27.08,21.78,49.14,48.72,49.56h0.91c27.08,0,49.14-21.78,49.56-48.72v-0.84v-6.49
		c-38.46-3.49-68.61-35.6-69.24-74.75v-1.26v-27.36v-0.7c0.42-26.8,22.27-48.3,49.07-48.3c26.87,0,48.65,21.57,49.07,48.3v0.84
		v70.15c40.34-12.56,69.1-50.04,69.1-93.74C345.03,151.5,300.85,107.53,246.41,107.53z"/>
	<path class="st0" d="M246.41,5.14C112.26,5.14,3.51,113.88,3.51,248.03s108.74,242.89,242.89,242.89S489.3,382.18,489.3,248.03
		S380.56,5.14,246.41,5.14z M278.02,328.86l-1.68,0.42l-0.42,0.07v9.56c0,42.51-33.78,77.06-75.94,78.45h-1.26h-1.33
		c-42.93,0-77.75-34.41-78.45-77.2v-1.33V202.66c0-3.56,0.21-7.12,0.7-10.61l0.07-0.63l0.21-1.61
		c7.75-61.91,59.82-109.23,122.7-111.12l1.88-0.07h1.95c70.43,0,127.52,56.88,127.52,127.1
		C373.93,264.57,333.58,314.76,278.02,328.86z"/>
	<path class="st0" d="M227.14,209.08h-0.35c-10.89,0-19.82,8.65-20.17,19.54v0.28v0.35v27.22c0,23.52,17.17,43.13,39.78,46.76
		l0.63,0.07v-74.05C246.97,218.23,238.1,209.29,227.14,209.08z"/>
</g>
</svg>
