<svg width="3000" height="640" viewBox="0 0 3000 640" fill="none" xmlns="http://www.w3.org/2000/svg">
<path d="M319.58 133.855C253.919 133.855 198.911 182.711 190.829 246.811L190.646 248.739V249.107V249.474C190.187 252.321 190.003 255.168 189.911 258.106V438.376C189.911 474.007 218.471 503.027 254.011 503.578H255.205C290.836 503.578 319.856 475.018 320.407 439.478V429.835C269.347 425.152 230.134 382.725 229.308 331.482V293.003C229.951 257.372 259.337 228.903 294.969 229.454C329.774 230.005 357.875 258.106 358.518 293.003V386.306C411.598 369.776 449.433 320.462 449.433 262.974C449.341 191.711 391.211 133.855 319.58 133.855Z" fill="white"/>
<path d="M294.236 267.457H293.777C279.451 267.457 267.696 278.844 267.237 293.17V329.812C267.237 360.393 289.369 386.473 319.583 391.341L320.409 391.433V293.997C320.409 279.487 308.746 267.733 294.236 267.457Z" fill="white"/>
<path d="M319.581 0C143.077 0 0 143.077 0 319.581C0 496.086 143.077 639.163 319.581 639.163C496.086 639.163 639.163 496.086 639.163 319.581C639.163 143.077 496.086 0 319.581 0ZM361.182 425.925L358.978 426.476L358.427 426.568V439.149C358.427 494.892 314.255 540.533 258.512 542.37H256.859H255.114C198.728 542.37 152.811 497.188 151.893 440.894V439.149V259.889C151.893 255.206 152.168 250.614 152.811 245.931L152.903 245.104L153.179 242.992C163.372 161.535 231.972 99.2722 314.622 96.7927L317.102 96.7009H319.673C412.333 96.7009 487.453 171.545 487.453 263.93C487.361 341.346 434.282 407.374 361.182 425.925Z" fill="white"/>
<path d="M1800.33 301.59C1788.82 301.59 1777.75 300.122 1767.14 297.187C1756.76 294.026 1747.27 289.849 1738.69 284.656C1730.34 279.237 1723.45 273.254 1718.03 266.707C1712.62 259.933 1709.23 252.708 1707.87 245.032L1761.72 229.792C1764.21 236.339 1768.5 242.097 1774.59 247.064C1780.91 251.805 1788.82 254.289 1798.3 254.515C1807.56 254.74 1815.23 252.595 1821.33 248.08C1827.65 243.564 1830.81 237.694 1830.81 230.469C1830.81 224.824 1828.55 219.857 1824.04 215.567C1819.75 211.278 1813.54 208.004 1805.41 205.746L1771.88 197.279C1760.14 194.344 1749.87 189.716 1741.06 183.394C1732.48 177.072 1725.71 169.395 1720.74 160.364C1716 151.107 1713.63 140.609 1713.63 128.868C1713.63 106.064 1721.2 88.3404 1736.32 75.6968C1751.45 62.8273 1772.79 56.3926 1800.33 56.3926C1815.46 56.3926 1828.67 58.5375 1839.96 62.8273C1851.24 66.8913 1860.84 72.9874 1868.74 81.1155C1876.87 89.2436 1883.31 99.4037 1888.05 111.596L1834.54 127.513C1832.73 121.417 1828.78 115.886 1822.68 110.918C1816.81 105.951 1809.14 103.468 1799.65 103.468C1790.17 103.468 1782.72 105.613 1777.3 109.902C1772.11 114.192 1769.51 120.401 1769.51 128.529C1769.51 134.174 1771.66 138.915 1775.95 142.753C1780.24 146.366 1786.11 149.075 1793.56 150.881L1827.09 159.348C1846.28 164.09 1861.18 173.008 1871.79 186.103C1882.63 198.973 1888.05 213.648 1888.05 230.13C1888.05 245.032 1884.55 257.788 1877.55 268.4C1870.77 279.012 1860.84 287.253 1847.74 293.123C1834.65 298.767 1818.84 301.59 1800.33 301.59Z" fill="white"/>
<path d="M1520.28 297.524V60.4551H1574.81V297.524H1520.28ZM1559.9 297.524V247.401H1676.41V297.524H1559.9ZM1559.9 202.358V153.928H1658.46V202.358H1559.9ZM1559.9 110.578V60.4551H1674.71V110.578H1559.9Z" fill="white"/>
<path d="M1381.23 301.59C1357.75 301.59 1336.98 296.397 1318.92 286.011C1301.08 275.399 1286.97 260.949 1276.59 242.661C1266.43 224.147 1261.35 202.924 1261.35 178.991C1261.35 155.058 1266.43 133.948 1276.59 115.66C1286.97 97.1459 1301.08 82.6959 1318.92 72.3101C1336.98 61.6984 1357.75 56.3926 1381.23 56.3926C1398.39 56.3926 1414.09 59.4406 1428.31 65.5366C1442.76 71.4069 1455.18 79.7608 1465.56 90.5982C1476.18 101.436 1484.3 113.966 1489.95 128.191L1438.81 145.463C1435.42 137.56 1430.79 130.674 1424.92 124.804C1419.28 118.934 1412.73 114.418 1405.28 111.257C1398.06 108.096 1390.04 106.516 1381.23 106.516C1368.82 106.516 1357.75 109.564 1348.05 115.66C1338.34 121.756 1330.77 130.336 1325.35 141.399C1319.94 152.236 1317.23 164.767 1317.23 178.991C1317.23 193.215 1319.94 205.859 1325.35 216.922C1331 227.76 1338.68 236.339 1348.38 242.661C1358.32 248.757 1369.61 251.805 1382.25 251.805C1391.51 251.805 1399.75 250.112 1406.97 246.725C1414.2 243.338 1420.41 238.597 1425.6 232.501C1431.02 226.405 1435.65 219.406 1439.49 211.503L1490.63 228.776C1485.21 243.225 1477.19 255.982 1466.58 267.045C1455.97 277.883 1443.44 286.349 1428.99 292.446C1414.54 298.542 1398.62 301.59 1381.23 301.59Z" fill="white"/>
<path d="M1075.44 297.524V60.4551H1129.97V297.524H1075.44ZM1115.07 297.524V247.401H1231.57V297.524H1115.07ZM1115.07 202.358V153.928H1213.62V202.358H1115.07ZM1115.07 110.578V60.4551H1229.88V110.578H1115.07Z" fill="white"/>
<path d="M974.9 297.524V60.4551H1029.43V297.524H974.9Z" fill="white"/>
<path d="M814.285 222.68V172.556H860.344C870.053 172.556 877.842 169.734 883.712 164.09C889.583 158.219 892.518 150.656 892.518 141.399C892.518 135.303 891.05 129.884 888.115 125.143C885.406 120.401 881.454 116.789 876.262 114.305C871.294 111.596 865.424 110.241 858.651 110.241H814.285V60.4567L860.005 60.118C877.165 59.8922 892.405 63.2789 905.726 70.2781C919.047 77.2773 929.433 86.8729 936.883 99.0651C944.56 111.257 948.398 125.368 948.398 141.399C948.398 156.978 944.673 170.976 937.222 183.394C929.997 195.586 919.837 205.182 906.742 212.181C893.647 219.18 878.632 222.68 861.699 222.68H814.285ZM766.871 297.526V60.4567H821.397V297.526H766.871Z" fill="white"/>
<path d="M2879.49 603.606C2870.79 603.606 2862.66 602.539 2855.1 600.404C2847.55 598.27 2840.82 595.314 2834.91 591.537C2829 587.597 2824.07 583.245 2820.13 578.483C2816.35 573.721 2813.89 568.713 2812.74 563.459L2845.74 553.606C2847.88 559.189 2851.66 564.033 2857.07 568.138C2862.49 572.079 2869.31 574.132 2877.52 574.296C2886.22 574.46 2893.28 572.572 2898.7 568.631C2904.28 564.69 2907.07 559.6 2907.07 553.36C2907.07 547.941 2904.86 543.426 2900.42 539.813C2896.15 536.037 2890.24 533.163 2882.69 531.193L2860.28 525.281C2851.9 523.147 2844.51 519.945 2838.11 515.675C2831.7 511.242 2826.7 505.823 2823.08 499.419C2819.47 493.015 2817.67 485.544 2817.67 477.005C2817.67 460.749 2823 448.106 2833.68 439.074C2844.51 429.879 2859.78 425.281 2879.49 425.281C2890.49 425.281 2900.1 426.923 2908.31 430.207C2916.68 433.327 2923.66 437.843 2929.24 443.754C2934.82 449.665 2939.09 456.644 2942.05 464.69L2909.29 474.789C2907.32 469.206 2903.71 464.444 2898.45 460.503C2893.2 456.562 2886.55 454.592 2878.5 454.592C2870.29 454.592 2863.81 456.48 2859.04 460.257C2854.45 464.033 2852.15 469.37 2852.15 476.266C2852.15 481.685 2853.95 485.954 2857.57 489.074C2861.34 492.194 2866.43 494.575 2872.84 496.217L2895.5 501.882C2910.28 505.495 2921.77 511.981 2929.98 521.34C2938.19 530.7 2942.3 541.127 2942.3 552.621C2942.3 562.802 2939.83 571.751 2934.91 579.468C2929.98 587.022 2922.84 592.933 2913.48 597.202C2904.12 601.472 2892.79 603.606 2879.49 603.606Z" fill="white"/>
<path d="M2685.27 539.567V508.779H2719.75C2724.84 508.779 2729.36 507.711 2733.3 505.577C2737.4 503.442 2740.61 500.486 2742.9 496.71C2745.37 492.933 2746.6 488.664 2746.6 483.902C2746.6 476.513 2743.89 470.519 2738.47 465.921C2733.22 461.324 2726.4 459.025 2718.03 459.025H2685.27V428.237L2719.51 427.99C2731.66 427.826 2742.41 430.207 2751.77 435.133C2761.13 439.895 2768.44 446.463 2773.69 454.838C2778.95 463.212 2781.57 472.9 2781.57 483.902C2781.57 494.739 2778.78 504.427 2773.2 512.966C2767.78 521.34 2760.31 527.908 2750.79 532.67C2741.26 537.268 2730.42 539.567 2718.27 539.567H2685.27ZM2655.47 600.65V428.237H2689.21V600.65H2655.47ZM2750.29 600.65L2710.39 531.439L2736.25 512.966L2788.47 600.65H2750.29Z" fill="white"/>
<path d="M2503.04 600.65V428.236H2536.78V600.65H2503.04ZM2528.65 600.65V569.862H2613.13V600.65H2528.65ZM2528.65 528.236V498.187H2601.8V528.236H2528.65ZM2528.65 459.025V428.236H2612.15V459.025H2528.65Z" fill="white"/>
<path d="M2377.04 543.507V512.473H2413.25C2420.8 512.473 2426.96 510.01 2431.72 505.084C2436.65 500.158 2439.11 493.672 2439.11 485.626C2439.11 480.371 2437.88 475.773 2435.42 471.832C2432.95 467.727 2429.59 464.525 2425.32 462.227C2421.05 459.928 2416.12 458.86 2410.54 459.025H2377.04V428.236L2411.28 427.99C2423.43 427.826 2434.18 430.289 2443.54 435.379C2452.9 440.305 2460.21 447.12 2465.46 455.823C2470.72 464.361 2473.35 474.296 2473.35 485.626C2473.35 496.791 2470.8 506.726 2465.71 515.429C2460.62 524.131 2453.64 531.028 2444.77 536.118C2435.91 541.044 2425.64 543.507 2413.99 543.507H2377.04ZM2347.24 600.65V428.236H2380.98V600.65H2347.24Z" fill="white"/>
<path d="M2224.8 603.608C2207.39 603.608 2191.96 599.831 2178.49 592.278C2165.19 584.561 2154.76 574.051 2147.21 560.751C2139.66 547.286 2135.88 531.933 2135.88 514.692C2135.88 497.122 2139.66 481.687 2147.21 468.386C2154.76 454.922 2165.11 444.413 2178.25 436.859C2191.55 429.306 2206.82 425.529 2224.06 425.529C2241.46 425.529 2256.73 429.388 2269.87 437.106C2283.17 444.659 2293.6 455.168 2301.15 468.633C2308.71 481.933 2312.48 497.286 2312.48 514.692C2312.48 531.933 2308.71 547.286 2301.15 560.751C2293.76 574.051 2283.42 584.561 2270.12 592.278C2256.98 599.831 2241.87 603.608 2224.8 603.608ZM2224.8 572.82C2235.31 572.82 2244.5 570.357 2252.38 565.431C2260.43 560.34 2266.67 553.444 2271.1 544.741C2275.7 536.038 2278 526.022 2278 514.692C2278 503.198 2275.7 493.099 2271.1 484.396C2266.5 475.693 2260.18 468.879 2252.14 463.953C2244.09 458.863 2234.73 456.317 2224.06 456.317C2213.71 456.317 2204.44 458.863 2196.23 463.953C2188.18 468.879 2181.86 475.693 2177.26 484.396C2172.66 493.099 2170.36 503.198 2170.36 514.692C2170.36 526.022 2172.66 536.038 2177.26 544.741C2181.86 553.444 2188.26 560.34 2196.47 565.431C2204.68 570.357 2214.12 572.82 2224.8 572.82Z" fill="white"/>
<path d="M2009.66 600.65V428.236H2043.41V600.65H2009.66ZM2031.34 600.65V569.862H2119.27V600.65H2031.34Z" fill="white"/>
<path d="M1857.23 600.65V428.236H1890.98V600.65H1857.23ZM1882.85 600.65V569.862H1967.33V600.65H1882.85ZM1882.85 528.236V498.187H1956V528.236H1882.85ZM1882.85 459.025V428.236H1966.35V459.025H1882.85Z" fill="white"/>
<path d="M1727.76 600.65L1793.03 428.236H1829.23L1760.76 600.65H1727.76ZM1724.06 600.65L1655.34 428.236H1691.55L1757.07 600.65H1724.06Z" fill="white"/>
<path d="M1519.66 600.65V428.236H1553.4V600.65H1519.66ZM1545.28 600.65V569.862H1629.76V600.65H1545.28ZM1545.28 528.236V498.187H1618.43V528.236H1545.28ZM1545.28 459.025V428.236H1628.77V459.025H1545.28Z" fill="white"/>
<path d="M1394.98 600.65V569.123C1402.86 569.123 1410.17 567.727 1416.9 564.936C1423.64 562.144 1429.46 558.286 1434.39 553.359C1439.48 548.433 1443.42 542.686 1446.21 536.118C1449 529.386 1450.4 522.161 1450.4 514.443C1450.4 506.726 1449 499.583 1446.21 493.015C1443.42 486.282 1439.48 480.453 1434.39 475.527C1429.46 470.601 1423.64 466.742 1416.9 463.951C1410.17 461.159 1402.86 459.763 1394.98 459.763V428.236C1412.55 428.236 1428.07 431.931 1441.53 439.32C1455.16 446.709 1465.75 456.89 1473.31 469.862C1481.02 482.67 1484.88 497.53 1484.88 514.443C1484.88 531.192 1481.02 546.052 1473.31 559.025C1465.59 571.997 1455 582.177 1441.53 589.566C1428.07 596.956 1412.55 600.65 1394.98 600.65ZM1359.27 600.65V569.123H1394.98V600.65H1359.27ZM1339.81 600.65V428.236H1373.55V600.65H1339.81ZM1359.27 459.763V428.236H1394.98V459.763H1359.27Z" fill="white"/>
<path d="M1137.39 539.567V508.779H1171.88C1176.97 508.779 1181.48 507.711 1185.42 505.577C1189.53 503.442 1192.73 500.486 1195.03 496.71C1197.49 492.933 1198.72 488.664 1198.72 483.902C1198.72 476.513 1196.01 470.519 1190.6 465.921C1185.34 461.324 1178.53 459.025 1170.15 459.025H1137.39V428.237L1171.63 427.99C1183.78 427.826 1194.54 430.207 1203.9 435.133C1213.26 439.895 1220.56 446.463 1225.82 454.838C1231.07 463.212 1233.7 472.9 1233.7 483.902C1233.7 494.739 1230.91 504.427 1225.32 512.966C1219.91 521.34 1212.43 527.908 1202.91 532.67C1193.39 537.268 1182.55 539.567 1170.4 539.567H1137.39ZM1107.59 600.65V428.237H1141.33V600.65H1107.59ZM1202.42 600.65L1162.52 531.439L1188.38 512.966L1240.6 600.65H1202.42Z" fill="white"/>
<path d="M985.151 603.608C967.745 603.608 952.31 599.831 938.845 592.278C925.545 584.561 915.118 574.051 907.564 560.751C900.011 547.286 896.234 531.933 896.234 514.692C896.234 497.122 900.011 481.687 907.564 468.386C915.118 454.922 925.463 444.413 938.599 436.859C951.899 429.306 967.17 425.529 984.412 425.529C1001.82 425.529 1017.09 429.388 1030.22 437.106C1043.53 444.659 1053.95 455.168 1061.51 468.633C1069.06 481.933 1072.84 497.286 1072.84 514.692C1072.84 531.933 1069.06 547.286 1061.51 560.751C1054.12 574.051 1043.77 584.561 1030.47 592.278C1017.33 599.831 1002.23 603.608 985.151 603.608ZM985.151 572.82C995.66 572.82 1004.86 570.357 1012.74 565.431C1020.78 560.34 1027.02 553.444 1031.46 544.741C1036.05 536.038 1038.35 526.022 1038.35 514.692C1038.35 503.198 1036.05 493.099 1031.46 484.396C1026.86 475.693 1020.54 468.879 1012.49 463.953C1004.44 458.863 995.085 456.317 984.412 456.317C974.067 456.317 964.789 458.863 956.579 463.953C948.533 468.879 942.211 475.693 937.614 484.396C933.016 493.099 930.717 503.198 930.717 514.692C930.717 526.022 933.016 536.038 937.614 544.741C942.211 553.444 948.615 560.34 956.826 565.431C965.036 570.357 974.477 572.82 985.151 572.82Z" fill="white"/>
<path d="M762.561 600.65V428.236H796.304V600.65H762.561ZM789.654 531.192V500.404H860.344V531.192H789.654ZM789.654 459.025V428.236H873.152V459.025H789.654Z" fill="white"/>
<path d="M1906.56 291V272.55H1915.63C1916.58 272.55 1917.51 272.775 1918.39 273.225C1919.3 273.658 1920.04 274.308 1920.62 275.175C1921.22 276.025 1921.52 277.075 1921.52 278.325C1921.52 279.575 1921.21 280.658 1920.6 281.575C1920 282.475 1919.23 283.167 1918.29 283.65C1917.37 284.133 1916.41 284.375 1915.42 284.375H1908.4V281.85H1914.55C1915.42 281.85 1916.2 281.55 1916.88 280.95C1917.58 280.333 1917.93 279.458 1917.93 278.325C1917.93 277.158 1917.58 276.325 1916.88 275.825C1916.2 275.325 1915.45 275.075 1914.63 275.075H1909.86V291H1906.56ZM1917.57 282.425L1922.29 291H1918.6L1914.01 282.425H1917.57ZM1913.5 302C1910.66 302 1908.01 301.483 1905.53 300.45C1903.05 299.417 1900.88 297.983 1899 296.15C1897.12 294.317 1895.65 292.192 1894.59 289.775C1893.53 287.358 1893 284.767 1893 282C1893 279.233 1893.53 276.642 1894.59 274.225C1895.65 271.808 1897.12 269.683 1899 267.85C1900.88 266.017 1903.05 264.583 1905.53 263.55C1908.01 262.517 1910.66 262 1913.5 262C1916.34 262 1918.99 262.517 1921.47 263.55C1923.95 264.583 1926.12 266.017 1928 267.85C1929.88 269.683 1931.35 271.808 1932.41 274.225C1933.47 276.642 1934 279.233 1934 282C1934 284.767 1933.47 287.358 1932.41 289.775C1931.35 292.192 1929.88 294.317 1928 296.15C1926.12 297.983 1923.95 299.417 1921.47 300.45C1918.99 301.483 1916.34 302 1913.5 302ZM1913.5 298.275C1916.57 298.275 1919.37 297.542 1921.88 296.075C1924.41 294.608 1926.42 292.65 1927.93 290.2C1929.43 287.733 1930.18 285 1930.18 282C1930.18 279 1929.43 276.275 1927.93 273.825C1926.42 271.358 1924.41 269.392 1921.88 267.925C1919.37 266.458 1916.57 265.725 1913.5 265.725C1910.42 265.725 1907.62 266.458 1905.09 267.925C1902.58 269.392 1900.58 271.358 1899.07 273.825C1897.57 276.275 1896.82 279 1896.82 282C1896.82 285 1897.57 287.733 1899.07 290.2C1900.58 292.65 1902.58 294.608 1905.09 296.075C1907.62 297.542 1910.42 298.275 1913.5 298.275Z" fill="white"/>
</svg>
