<svg width="465" height="465" viewBox="0 0 465 465" fill="none" xmlns="http://www.w3.org/2000/svg">
<circle cx="232.5" cy="232.5" r="176.5" fill="black"/>
<path d="M232.325 97.9375C184.591 97.9375 144.602 133.454 138.727 180.052L138.594 181.454V181.721V181.988C138.26 184.058 138.126 186.128 138.06 188.264V319.314C138.06 345.217 158.822 366.313 184.658 366.713H185.526C211.429 366.713 232.525 345.951 232.926 320.115V313.105C195.807 309.7 167.3 278.857 166.7 241.605V213.633C167.167 187.73 188.53 167.034 214.433 167.435C239.735 167.835 260.164 188.264 260.631 213.633V281.461C299.218 269.444 326.724 233.594 326.724 191.802C326.657 139.996 284.398 97.9375 232.325 97.9375Z" fill="white"/>
<path d="M213.899 195.072H213.565C203.151 195.072 194.605 203.351 194.271 213.765V240.402C194.271 262.633 210.361 281.593 232.325 285.132L232.926 285.198V214.366C232.926 203.818 224.447 195.273 213.899 195.072Z" fill="white"/>
<path d="M232.325 0C104.012 0 0 104.012 0 232.325C0 360.638 104.012 464.65 232.325 464.65C360.638 464.65 464.65 360.638 464.65 232.325C464.65 104.012 360.638 0 232.325 0ZM262.567 309.633L260.965 310.034L260.564 310.1V319.247C260.564 359.77 228.453 392.95 187.93 394.285H186.728H185.459C144.469 394.285 111.089 361.439 110.421 320.515V319.247V188.931C110.421 185.526 110.621 182.188 111.089 178.783L111.155 178.183L111.356 176.647C118.766 117.431 168.636 72.1676 228.72 70.3651L230.522 70.2983H232.392C299.753 70.2983 354.362 124.708 354.362 191.868C354.296 248.147 315.708 296.148 262.567 309.633Z" fill="white"/>
</svg>
