<svg width="2999" height="640" viewBox="0 0 2999 640" fill="none" xmlns="http://www.w3.org/2000/svg">
<circle cx="320" cy="319" r="245" fill="white"/>
<path d="M319.581 133.857C253.92 133.857 198.912 182.713 190.83 246.813L190.647 248.741V249.109V249.476C190.188 252.323 190.004 255.17 189.912 258.108V438.378C189.912 474.009 218.472 503.028 254.012 503.579H255.206C290.837 503.579 319.857 475.019 320.408 439.48V429.837C269.348 425.154 230.135 382.726 229.309 331.483V293.005C229.952 257.374 259.338 228.905 294.97 229.456C329.775 230.007 357.876 258.108 358.519 293.005V386.308C411.599 369.778 449.434 320.463 449.434 262.975C449.342 191.713 391.211 133.857 319.581 133.857Z" fill="black"/>
<path d="M294.24 267.456H293.781C279.455 267.456 267.7 278.843 267.241 293.169V329.811C267.241 360.392 289.373 386.472 319.586 391.34L320.413 391.431V293.996C320.413 279.486 308.75 267.732 294.24 267.456Z" fill="black"/>
<path d="M319.581 0C143.077 0 0 143.077 0 319.581C0 496.085 143.077 639.162 319.581 639.162C496.085 639.162 639.162 496.085 639.162 319.581C639.162 143.077 496.085 0 319.581 0ZM361.182 425.924L358.978 426.475L358.427 426.567V439.148C358.427 494.891 314.255 540.532 258.512 542.369H256.859H255.114C198.728 542.369 152.811 497.187 151.893 440.893V439.148V259.889C151.893 255.206 152.168 250.614 152.811 245.93L152.903 245.104L153.178 242.992C163.372 161.535 231.972 99.2721 314.622 96.7926L317.101 96.7008H319.673C412.333 96.7008 487.453 171.545 487.453 263.93C487.361 341.345 434.281 407.374 361.182 425.924Z" fill="black"/>
<path d="M814.289 223.181V173.058H860.348C870.056 173.058 877.846 170.236 883.716 164.591C889.586 158.721 892.521 151.158 892.521 141.901C892.521 135.805 891.054 130.386 888.119 125.644C885.409 120.903 881.458 117.291 876.265 114.807C871.298 112.098 865.428 110.743 858.654 110.743H814.289V60.9586L860.009 60.6199C877.168 60.3941 892.409 63.7808 905.73 70.78C919.051 77.7791 929.436 87.3748 936.887 99.5669C944.564 111.759 948.402 125.87 948.402 141.901C948.402 157.479 944.677 171.478 937.226 183.896C930.001 196.088 919.841 205.683 906.746 212.683C893.65 219.682 878.636 223.181 861.702 223.181H814.289ZM766.875 298.027V60.9586H821.401V298.027H766.875Z" fill="black"/>
<path d="M974.905 298.027V60.9586H1029.43V298.027H974.905Z" fill="black"/>
<path d="M1075.45 298.027V60.9586H1129.97V298.027H1075.45ZM1115.07 298.027V247.904H1231.57V298.027H1115.07ZM1115.07 202.861V154.431H1213.63V202.861H1115.07ZM1115.07 111.082V60.9586H1229.88V111.082H1115.07Z" fill="black"/>
<path d="M1381.24 302.091C1357.76 302.091 1336.98 296.898 1318.92 286.512C1301.09 275.901 1286.97 261.451 1276.59 243.163C1266.43 224.649 1261.35 203.426 1261.35 179.493C1261.35 155.56 1266.43 134.45 1276.59 116.162C1286.97 97.6478 1301.09 83.1979 1318.92 72.812C1336.98 62.2004 1357.76 56.8945 1381.24 56.8945C1398.4 56.8945 1414.09 59.9426 1428.31 66.0386C1442.76 71.9089 1455.18 80.2627 1465.57 91.1002C1476.18 101.938 1484.31 114.468 1489.95 128.692L1438.81 145.965C1435.42 138.062 1430.8 131.176 1424.93 125.306C1419.28 119.436 1412.73 114.92 1405.28 111.759C1398.06 108.598 1390.04 107.018 1381.24 107.018C1368.82 107.018 1357.76 110.066 1348.05 116.162C1338.34 122.258 1330.78 130.837 1325.36 141.901C1319.94 152.738 1317.23 165.269 1317.23 179.493C1317.23 193.717 1319.94 206.361 1325.36 217.424C1331 228.261 1338.68 236.841 1348.39 243.163C1358.32 249.259 1369.61 252.307 1382.25 252.307C1391.51 252.307 1399.75 250.614 1406.98 247.227C1414.2 243.84 1420.41 239.099 1425.6 233.003C1431.02 226.907 1435.65 219.907 1439.49 212.005L1490.63 229.277C1485.21 243.727 1477.19 256.484 1466.58 267.547C1455.97 278.384 1443.44 286.851 1428.99 292.947C1414.54 299.043 1398.62 302.091 1381.24 302.091Z" fill="black"/>
<path d="M1520.28 298.027V60.9586H1574.81V298.027H1520.28ZM1559.91 298.027V247.904H1676.41V298.027H1559.91ZM1559.91 202.861V154.431H1658.46V202.861H1559.91ZM1559.91 111.082V60.9586H1674.72V111.082H1559.91Z" fill="black"/>
<path d="M1800.33 302.091C1788.82 302.091 1777.76 300.624 1767.14 297.689C1756.76 294.528 1747.27 290.351 1738.7 285.158C1730.34 279.739 1723.46 273.756 1718.04 267.208C1712.62 260.435 1709.23 253.21 1707.88 245.533L1761.72 230.293C1764.21 236.841 1768.5 242.598 1774.59 247.565C1780.92 252.307 1788.82 254.79 1798.3 255.016C1807.56 255.242 1815.23 253.097 1821.33 248.581C1827.65 244.066 1830.81 238.196 1830.81 230.971C1830.81 225.326 1828.56 220.359 1824.04 216.069C1819.75 211.779 1813.54 208.506 1805.41 206.248L1771.88 197.781C1760.14 194.846 1749.87 190.217 1741.07 183.896C1732.49 177.574 1725.71 169.897 1720.75 160.866C1716 151.609 1713.63 141.11 1713.63 129.37C1713.63 106.566 1721.2 88.8424 1736.32 76.1987C1751.45 63.3293 1772.79 56.8945 1800.33 56.8945C1815.46 56.8945 1828.67 59.0394 1839.96 63.3292C1851.25 67.3933 1860.84 73.4893 1868.74 81.6174C1876.87 89.7455 1883.31 99.9056 1888.05 112.098L1834.54 128.015C1832.73 121.919 1828.78 116.387 1822.69 111.42C1816.82 106.453 1809.14 103.97 1799.66 103.97C1790.17 103.97 1782.72 106.115 1777.3 110.404C1772.11 114.694 1769.51 120.903 1769.51 129.031C1769.51 134.676 1771.66 139.417 1775.95 143.255C1780.24 146.868 1786.11 149.577 1793.56 151.383L1827.09 159.85C1846.28 164.591 1861.18 173.51 1871.79 186.605C1882.63 199.474 1888.05 214.15 1888.05 230.632C1888.05 245.533 1884.55 258.29 1877.55 268.902C1870.78 279.513 1860.84 287.754 1847.75 293.625C1834.65 299.269 1818.85 302.091 1800.33 302.091Z" fill="black"/>
<path d="M762.564 599.754V427.34H796.308V599.754H762.564ZM789.658 530.296V499.508H860.348V530.296H789.658ZM789.658 458.129V427.34H873.155V458.129H789.658Z" fill="#A1A1A1"/>
<path d="M985.153 602.71C967.748 602.71 952.312 598.933 938.848 591.38C925.547 583.662 915.12 573.153 907.567 559.853C900.014 546.388 896.237 531.035 896.237 513.794C896.237 496.224 900.014 480.789 907.567 467.488C915.12 454.023 925.465 443.514 938.601 435.961C951.902 428.408 967.173 424.631 984.414 424.631C1001.82 424.631 1017.09 428.49 1030.23 436.207C1043.53 443.761 1053.95 454.27 1061.51 467.734C1069.06 481.035 1072.84 496.388 1072.84 513.794C1072.84 531.035 1069.06 546.388 1061.51 559.853C1054.12 573.153 1043.77 583.662 1030.47 591.38C1017.34 598.933 1002.23 602.71 985.153 602.71ZM985.153 571.922C995.662 571.922 1004.86 569.458 1012.74 564.532C1020.79 559.442 1027.03 552.546 1031.46 543.843C1036.06 535.14 1038.36 525.124 1038.36 513.794C1038.36 502.299 1036.06 492.201 1031.46 483.498C1026.86 474.795 1020.54 467.981 1012.49 463.055C1004.45 457.964 995.087 455.419 984.414 455.419C974.069 455.419 964.792 457.964 956.582 463.055C948.536 467.981 942.214 474.795 937.616 483.498C933.019 492.201 930.72 502.299 930.72 513.794C930.72 525.124 933.019 535.14 937.616 543.843C942.214 552.546 948.618 559.442 956.828 564.532C965.038 569.458 974.48 571.922 985.153 571.922Z" fill="#A1A1A1"/>
<path d="M1137.4 538.67V507.882H1171.88C1176.97 507.882 1181.49 506.815 1185.43 504.68C1189.53 502.546 1192.73 499.59 1195.03 495.813C1197.5 492.037 1198.73 487.767 1198.73 483.005C1198.73 475.616 1196.02 469.623 1190.6 465.025C1185.34 460.427 1178.53 458.129 1170.16 458.129H1137.4V427.34L1171.63 427.094C1183.78 426.93 1194.54 429.311 1203.9 434.237C1213.26 438.999 1220.57 445.567 1225.82 453.941C1231.07 462.316 1233.7 472.004 1233.7 483.005C1233.7 493.843 1230.91 503.531 1225.33 512.069C1219.91 520.444 1212.44 527.012 1202.91 531.774C1193.39 536.371 1182.55 538.67 1170.4 538.67H1137.4ZM1107.59 599.754V427.34H1141.34V599.754H1107.59ZM1202.42 599.754L1162.52 530.542L1188.38 512.069L1240.6 599.754H1202.42Z" fill="#A1A1A1"/>
<path d="M1394.99 599.754V568.227C1402.87 568.227 1410.17 566.831 1416.91 564.04C1423.64 561.248 1429.47 557.39 1434.39 552.463C1439.48 547.537 1443.43 541.79 1446.22 535.222C1449.01 528.49 1450.4 521.265 1450.4 513.547C1450.4 505.83 1449.01 498.687 1446.22 492.119C1443.43 485.386 1439.48 479.557 1434.39 474.631C1429.47 469.705 1423.64 465.846 1416.91 463.055C1410.17 460.263 1402.87 458.867 1394.99 458.867V427.34C1412.56 427.34 1428.07 431.035 1441.54 438.424C1455.17 445.813 1465.76 455.994 1473.31 468.966C1481.03 481.774 1484.89 496.634 1484.89 513.547C1484.89 530.296 1481.03 545.156 1473.31 558.128C1465.59 571.101 1455 581.281 1441.54 588.67C1428.07 596.059 1412.56 599.754 1394.99 599.754ZM1359.27 599.754V568.227H1394.99V599.754H1359.27ZM1339.81 599.754V427.34H1373.56V599.754H1339.81ZM1359.27 458.867V427.34H1394.99V458.867H1359.27Z" fill="#A1A1A1"/>
<path d="M1519.66 599.754V427.34H1553.41V599.754H1519.66ZM1545.28 599.754V568.966H1629.76V599.754H1545.28ZM1545.28 527.34V497.291H1618.43V527.34H1545.28ZM1545.28 458.129V427.34H1628.78V458.129H1545.28Z" fill="#A1A1A1"/>
<path d="M1727.76 599.754L1793.03 427.34H1829.24L1760.76 599.754H1727.76ZM1724.06 599.754L1655.35 427.34H1691.55L1757.07 599.754H1724.06Z" fill="#A1A1A1"/>
<path d="M1857.24 599.754V427.34H1890.98V599.754H1857.24ZM1882.85 599.754V568.966H1967.34V599.754H1882.85ZM1882.85 527.34V497.291H1956.01V527.34H1882.85ZM1882.85 458.129V427.34H1966.35V458.129H1882.85Z" fill="#A1A1A1"/>
<path d="M2009.67 599.754V427.34H2043.41V599.754H2009.67ZM2031.34 599.754V568.966H2119.27V599.754H2031.34Z" fill="#A1A1A1"/>
<path d="M2224.8 602.71C2207.39 602.71 2191.96 598.933 2178.49 591.38C2165.19 583.662 2154.77 573.153 2147.21 559.853C2139.66 546.388 2135.88 531.035 2135.88 513.794C2135.88 496.224 2139.66 480.789 2147.21 467.488C2154.77 454.023 2165.11 443.514 2178.25 435.961C2191.55 428.408 2206.82 424.631 2224.06 424.631C2241.47 424.631 2256.74 428.49 2269.87 436.207C2283.17 443.761 2293.6 454.27 2301.15 467.734C2308.71 481.035 2312.48 496.388 2312.48 513.794C2312.48 531.035 2308.71 546.388 2301.15 559.853C2293.76 573.153 2283.42 583.662 2270.12 591.38C2256.98 598.933 2241.88 602.71 2224.8 602.71ZM2224.8 571.922C2235.31 571.922 2244.5 569.458 2252.39 564.532C2260.43 559.442 2266.67 552.546 2271.1 543.843C2275.7 535.14 2278 525.124 2278 513.794C2278 502.299 2275.7 492.201 2271.1 483.498C2266.51 474.795 2260.19 467.981 2252.14 463.055C2244.09 457.964 2234.73 455.419 2224.06 455.419C2213.72 455.419 2204.44 457.964 2196.23 463.055C2188.18 467.981 2181.86 474.795 2177.26 483.498C2172.66 492.201 2170.37 502.299 2170.37 513.794C2170.37 525.124 2172.66 535.14 2177.26 543.843C2181.86 552.546 2188.26 559.442 2196.47 564.532C2204.68 569.458 2214.13 571.922 2224.8 571.922Z" fill="#A1A1A1"/>
<path d="M2377.04 542.611V511.577H2413.25C2420.8 511.577 2426.96 509.114 2431.72 504.188C2436.65 499.262 2439.11 492.775 2439.11 484.73C2439.11 479.475 2437.88 474.877 2435.42 470.936C2432.95 466.831 2429.59 463.629 2425.32 461.331C2421.05 459.032 2416.12 457.964 2410.54 458.129H2377.04V427.34L2411.28 427.094C2423.43 426.93 2434.19 429.393 2443.55 434.483C2452.91 439.409 2460.21 446.224 2465.47 454.927C2470.72 463.465 2473.35 473.399 2473.35 484.73C2473.35 495.895 2470.8 505.83 2465.71 514.532C2460.62 523.235 2453.64 530.132 2444.78 535.222C2435.91 540.148 2425.65 542.611 2413.99 542.611H2377.04ZM2347.24 599.754V427.34H2380.98V599.754H2347.24Z" fill="#A1A1A1"/>
<path d="M2503.04 599.754V427.34H2536.78V599.754H2503.04ZM2528.65 599.754V568.966H2613.14V599.754H2528.65ZM2528.65 527.34V497.291H2601.81V527.34H2528.65ZM2528.65 458.129V427.34H2612.15V458.129H2528.65Z" fill="#A1A1A1"/>
<path d="M2685.27 538.67V507.882H2719.75C2724.84 507.882 2729.36 506.815 2733.3 504.68C2737.41 502.546 2740.61 499.59 2742.91 495.813C2745.37 492.037 2746.6 487.767 2746.6 483.005C2746.6 475.616 2743.89 469.623 2738.47 465.025C2733.22 460.427 2726.4 458.129 2718.03 458.129H2685.27V427.34L2719.51 427.094C2731.66 426.93 2742.41 429.311 2751.77 434.237C2761.13 438.999 2768.44 445.567 2773.69 453.941C2778.95 462.316 2781.58 472.004 2781.58 483.005C2781.58 493.843 2778.78 503.531 2773.2 512.069C2767.78 520.444 2760.31 527.012 2750.79 531.774C2741.26 536.371 2730.43 538.67 2718.28 538.67H2685.27ZM2655.47 599.754V427.34H2689.21V599.754H2655.47ZM2750.3 599.754L2710.39 530.542L2736.26 512.069L2788.47 599.754H2750.3Z" fill="#A1A1A1"/>
<path d="M2879.49 602.71C2870.79 602.71 2862.66 601.642 2855.11 599.508C2847.55 597.373 2840.82 594.417 2834.91 590.641C2829 586.7 2824.07 582.348 2820.13 577.587C2816.35 572.825 2813.89 567.816 2812.74 562.562L2845.75 552.71C2847.88 558.293 2851.66 563.137 2857.08 567.242C2862.5 571.183 2869.31 573.235 2877.52 573.399C2886.22 573.564 2893.28 571.675 2898.7 567.734C2904.28 563.793 2907.08 558.703 2907.08 552.463C2907.08 547.045 2904.86 542.529 2900.43 538.917C2896.16 535.14 2890.25 532.266 2882.69 530.296L2860.28 524.385C2851.9 522.25 2844.51 519.048 2838.11 514.779C2831.71 510.345 2826.7 504.927 2823.09 498.523C2819.47 492.119 2817.67 484.647 2817.67 476.109C2817.67 459.853 2823 447.209 2833.68 438.178C2844.51 428.982 2859.79 424.385 2879.49 424.385C2890.49 424.385 2900.1 426.027 2908.31 429.311C2916.68 432.431 2923.66 436.946 2929.24 442.858C2934.83 448.769 2939.1 455.748 2942.05 463.794L2909.29 473.892C2907.32 468.309 2903.71 463.547 2898.46 459.606C2893.2 455.666 2886.55 453.695 2878.5 453.695C2870.29 453.695 2863.81 455.583 2859.05 459.36C2854.45 463.137 2852.15 468.473 2852.15 475.37C2852.15 480.789 2853.96 485.058 2857.57 488.178C2861.35 491.298 2866.44 493.679 2872.84 495.321L2895.5 500.986C2910.28 504.598 2921.77 511.084 2929.98 520.444C2938.19 529.803 2942.3 540.23 2942.3 551.725C2942.3 561.905 2939.83 570.854 2934.91 578.572C2929.98 586.125 2922.84 592.036 2913.48 596.306C2904.12 600.575 2892.79 602.71 2879.49 602.71Z" fill="#A1A1A1"/>
<path d="M1906.56 291V272.55H1915.63C1916.58 272.55 1917.51 272.775 1918.39 273.225C1919.3 273.658 1920.04 274.308 1920.62 275.175C1921.22 276.025 1921.52 277.075 1921.52 278.325C1921.52 279.575 1921.21 280.658 1920.6 281.575C1920 282.475 1919.23 283.167 1918.29 283.65C1917.37 284.133 1916.41 284.375 1915.42 284.375H1908.4V281.85H1914.55C1915.42 281.85 1916.2 281.55 1916.88 280.95C1917.58 280.333 1917.93 279.458 1917.93 278.325C1917.93 277.158 1917.58 276.325 1916.88 275.825C1916.2 275.325 1915.45 275.075 1914.63 275.075H1909.86V291H1906.56ZM1917.57 282.425L1922.29 291H1918.6L1914.01 282.425H1917.57ZM1913.5 302C1910.66 302 1908.01 301.483 1905.53 300.45C1903.05 299.417 1900.88 297.983 1899 296.15C1897.12 294.317 1895.65 292.192 1894.59 289.775C1893.53 287.358 1893 284.767 1893 282C1893 279.233 1893.53 276.642 1894.59 274.225C1895.65 271.808 1897.12 269.683 1899 267.85C1900.88 266.017 1903.05 264.583 1905.53 263.55C1908.01 262.517 1910.66 262 1913.5 262C1916.34 262 1918.99 262.517 1921.47 263.55C1923.95 264.583 1926.12 266.017 1928 267.85C1929.88 269.683 1931.35 271.808 1932.41 274.225C1933.47 276.642 1934 279.233 1934 282C1934 284.767 1933.47 287.358 1932.41 289.775C1931.35 292.192 1929.88 294.317 1928 296.15C1926.12 297.983 1923.95 299.417 1921.47 300.45C1918.99 301.483 1916.34 302 1913.5 302ZM1913.5 298.275C1916.57 298.275 1919.37 297.542 1921.88 296.075C1924.41 294.608 1926.42 292.65 1927.93 290.2C1929.43 287.733 1930.18 285 1930.18 282C1930.18 279 1929.43 276.275 1927.93 273.825C1926.42 271.358 1924.41 269.392 1921.88 267.925C1919.37 266.458 1916.57 265.725 1913.5 265.725C1910.42 265.725 1907.62 266.458 1905.09 267.925C1902.58 269.392 1900.58 271.358 1899.07 273.825C1897.57 276.275 1896.82 279 1896.82 282C1896.82 285 1897.57 287.733 1899.07 290.2C1900.58 292.65 1902.58 294.608 1905.09 296.075C1907.62 297.542 1910.42 298.275 1913.5 298.275Z" fill="black"/>
</svg>
