<svg width="242" height="237" viewBox="0 0 242 237" fill="none" xmlns="http://www.w3.org/2000/svg">
<path fill-rule="evenodd" clip-rule="evenodd" d="M121 0C54.1475 0 0 54.1475 0 121C0 174.543 34.6362 219.766 82.7337 235.799C88.7837 236.858 91.0525 233.228 91.0525 230.051C91.0525 227.178 90.9013 217.649 90.9013 207.515C60.5 213.111 52.635 200.104 50.215 193.298C48.8537 189.819 42.955 179.08 37.8125 176.206C33.5775 173.938 27.5275 168.341 37.6613 168.19C47.19 168.039 53.9963 176.963 56.265 180.592C67.155 198.894 84.5488 193.751 91.5063 190.575C92.565 182.71 95.7412 177.416 99.22 174.391C72.2975 171.366 44.165 160.93 44.165 114.648C44.165 101.489 48.8538 90.5988 56.5675 82.1288C55.3575 79.1038 51.1225 66.7013 57.7775 50.0638C57.7775 50.0638 67.9112 46.8875 91.0525 62.4663C100.732 59.7438 111.018 58.3825 121.303 58.3825C131.588 58.3825 141.873 59.7438 151.553 62.4663C174.694 46.7363 184.827 50.0638 184.827 50.0638C191.482 66.7013 187.247 79.1038 186.038 82.1288C193.751 90.5988 198.44 101.338 198.44 114.648C198.44 161.081 170.156 171.366 143.234 174.391C147.62 178.173 151.401 185.433 151.401 196.776C151.401 212.96 151.25 225.968 151.25 230.051C151.25 233.228 153.519 237.009 159.569 235.799C207.364 219.766 242 174.391 242 121C242 54.1475 187.853 0 121 0Z" fill="white"/>
</svg>
