<svg width="405" height="405" viewBox="0 0 405 405" fill="none" xmlns="http://www.w3.org/2000/svg">
<path d="M405 202.5C405 314.338 314.338 405 202.5 405C90.6623 405 0 314.338 0 202.5C0 90.6623 90.6623 0 202.5 0C314.338 0 405 90.6623 405 202.5Z" fill="white"/>
<path d="M90.2951 93.6393C90.2951 90.3256 92.9814 87.6393 96.2951 87.6393H308.705C312.019 87.6393 314.705 90.3256 314.705 93.6393V146.705C314.705 150.019 312.019 152.705 308.705 152.705H96.2951C92.9814 152.705 90.2951 150.019 90.2951 146.705V93.6393Z" fill="black"/>
<path d="M90.2951 175.967C90.2951 172.654 92.9814 169.967 96.2951 169.967H308.705C312.019 169.967 314.705 172.654 314.705 175.967V229.033C314.705 232.346 312.019 235.033 308.705 235.033H96.2951C92.9814 235.033 90.2951 232.347 90.2951 229.033V175.967Z" fill="black"/>
<path d="M90.2951 258.295C90.2951 254.981 92.9814 252.295 96.2951 252.295H308.705C312.019 252.295 314.705 254.981 314.705 258.295V311.361C314.705 314.674 312.019 317.361 308.705 317.361H96.2951C92.9814 317.361 90.2951 314.674 90.2951 311.361V258.295Z" fill="black"/>
<path d="M107.557 119.525C107.557 117.315 109.348 115.525 111.557 115.525H124.803C127.012 115.525 128.803 117.315 128.803 119.525V122.148C128.803 124.357 127.012 126.148 124.803 126.148H111.557C109.348 126.148 107.557 124.357 107.557 122.148V119.525Z" fill="white"/>
<path d="M139.426 119.525C139.426 117.315 141.217 115.525 143.426 115.525H156.672C158.881 115.525 160.672 117.315 160.672 119.525V122.148C160.672 124.357 158.881 126.148 156.672 126.148H143.426C141.217 126.148 139.426 124.357 139.426 122.148V119.525Z" fill="white"/>
<path d="M171.295 119.525C171.295 117.315 173.086 115.525 175.295 115.525H188.541C190.75 115.525 192.541 117.315 192.541 119.525V122.148C192.541 124.357 190.75 126.148 188.541 126.148H175.295C173.086 126.148 171.295 124.357 171.295 122.148V119.525Z" fill="white"/>
<path d="M107.557 201.852C107.557 199.643 109.348 197.852 111.557 197.852H124.803C127.012 197.852 128.803 199.643 128.803 201.852V204.475C128.803 206.685 127.012 208.475 124.803 208.475H111.557C109.348 208.475 107.557 206.685 107.557 204.475V201.852Z" fill="white"/>
<path d="M139.426 201.852C139.426 199.643 141.217 197.852 143.426 197.852H156.672C158.881 197.852 160.672 199.643 160.672 201.852V204.475C160.672 206.685 158.881 208.475 156.672 208.475H143.426C141.217 208.475 139.426 206.685 139.426 204.475V201.852Z" fill="white"/>
<path d="M171.295 201.852C171.295 199.643 173.086 197.852 175.295 197.852H188.541C190.75 197.852 192.541 199.643 192.541 201.852V204.475C192.541 206.685 190.75 208.475 188.541 208.475H175.295C173.086 208.475 171.295 206.685 171.295 204.475V201.852Z" fill="white"/>
<path d="M107.557 284.18C107.557 281.971 109.348 280.18 111.557 280.18H124.803C127.012 280.18 128.803 281.971 128.803 284.18V286.803C128.803 289.012 127.012 290.803 124.803 290.803H111.557C109.348 290.803 107.557 289.012 107.557 286.803V284.18Z" fill="white"/>
<path d="M139.426 284.18C139.426 281.971 141.217 280.18 143.426 280.18H156.672C158.881 280.18 160.672 281.971 160.672 284.18V286.803C160.672 289.012 158.881 290.803 156.672 290.803H143.426C141.217 290.803 139.426 289.012 139.426 286.803V284.18Z" fill="white"/>
<path d="M171.295 284.18C171.295 281.971 173.086 280.18 175.295 280.18H188.541C190.75 280.18 192.541 281.971 192.541 284.18V286.803C192.541 289.012 190.75 290.803 188.541 290.803H175.295C173.086 290.803 171.295 289.012 171.295 286.803V284.18Z" fill="white"/>
<path d="M297.443 120.836C297.443 125.97 293.281 130.131 288.147 130.131C283.014 130.131 278.852 125.97 278.852 120.836C278.852 115.703 283.014 111.541 288.147 111.541C293.281 111.541 297.443 115.703 297.443 120.836Z" fill="white"/>
<path d="M369.148 261.59C369.148 300.458 337.639 331.967 298.77 331.967C259.902 331.967 228.393 300.458 228.393 261.59C228.393 222.722 259.902 191.213 298.77 191.213C337.639 191.213 369.148 222.722 369.148 261.59Z" fill="black"/>
<path d="M298.107 217.528C282.692 217.528 269.778 228.998 267.881 244.046L267.838 244.498V244.585V244.671C267.73 245.339 267.687 246.008 267.666 246.697V289.017C267.666 297.382 274.37 304.195 282.714 304.324H282.994C291.359 304.324 298.171 297.619 298.301 289.276V287.012C286.314 285.913 277.108 275.953 276.914 263.923V254.89C277.065 246.525 283.964 239.842 292.329 239.971C300.5 240.1 307.097 246.697 307.248 254.89V276.793C319.709 272.913 328.591 261.336 328.591 247.84C328.569 231.11 314.922 217.528 298.107 217.528Z" fill="white"/>
<path d="M292.156 248.896H292.049C288.685 248.896 285.926 251.57 285.818 254.933V263.535C285.818 270.714 291.014 276.837 298.107 277.979L298.301 278.001V255.127C298.301 251.721 295.563 248.961 292.156 248.896Z" fill="white"/>
<path d="M298.107 185.902C256.671 185.902 223.082 219.49 223.082 260.926C223.082 302.362 256.671 335.951 298.107 335.951C339.543 335.951 373.131 302.362 373.131 260.926C373.131 219.49 339.543 185.902 298.107 185.902ZM307.873 285.891L307.355 286.021L307.226 286.042V288.996C307.226 302.082 296.856 312.797 283.77 313.228H283.382H282.972C269.735 313.228 258.956 302.621 258.74 289.405V288.996V246.913C258.74 245.814 258.805 244.736 258.956 243.636L258.977 243.442L259.042 242.946C261.435 223.824 277.539 209.207 296.942 208.625L297.524 208.603H298.128C319.881 208.603 337.516 226.173 337.516 247.862C337.494 266.036 325.033 281.536 307.873 285.891Z" fill="white"/>
</svg>
