<svg width="405" height="405" viewBox="0 0 405 405" fill="none" xmlns="http://www.w3.org/2000/svg">
<circle cx="202.5" cy="202.5" r="202.5" fill="black"/>
<rect x="90.2951" y="87.6393" width="224.41" height="65.0656" rx="6" fill="white"/>
<rect x="90.2951" y="169.967" width="224.41" height="65.0656" rx="6" fill="white"/>
<rect x="90.2951" y="252.295" width="224.41" height="65.0656" rx="6" fill="white"/>
<rect x="107.557" y="115.525" width="21.2459" height="10.623" rx="4" fill="black"/>
<rect x="139.426" y="115.525" width="21.2459" height="10.623" rx="4" fill="black"/>
<rect x="171.295" y="115.525" width="21.2459" height="10.623" rx="4" fill="black"/>
<rect x="107.557" y="197.852" width="21.2459" height="10.623" rx="4" fill="black"/>
<rect x="139.426" y="197.852" width="21.2459" height="10.623" rx="4" fill="black"/>
<rect x="171.295" y="197.852" width="21.2459" height="10.623" rx="4" fill="black"/>
<rect x="107.557" y="280.18" width="21.2459" height="10.623" rx="4" fill="black"/>
<rect x="139.426" y="280.18" width="21.2459" height="10.623" rx="4" fill="black"/>
<rect x="171.295" y="280.18" width="21.2459" height="10.623" rx="4" fill="black"/>
<circle cx="288.148" cy="120.836" r="9.29508" fill="black"/>
<circle cx="298.771" cy="261.59" r="70.3771" fill="white"/>
<path d="M298.107 217.528C282.692 217.528 269.778 228.998 267.881 244.046L267.838 244.498V244.585V244.671C267.73 245.339 267.687 246.008 267.666 246.697V289.017C267.666 297.382 274.37 304.195 282.714 304.324H282.994C291.359 304.324 298.171 297.619 298.301 289.276V287.012C286.314 285.913 277.108 275.953 276.914 263.923V254.89C277.065 246.525 283.964 239.842 292.329 239.971C300.5 240.1 307.097 246.697 307.248 254.89V276.793C319.708 272.913 328.591 261.336 328.591 247.84C328.569 231.11 314.922 217.528 298.107 217.528Z" fill="black"/>
<path d="M292.156 248.896H292.049C288.685 248.896 285.926 251.57 285.818 254.933V263.535C285.818 270.714 291.014 276.837 298.107 277.979L298.301 278.001V255.127C298.301 251.721 295.563 248.961 292.156 248.896Z" fill="black"/>
<path d="M298.107 185.902C256.671 185.902 223.082 219.49 223.082 260.926C223.082 302.362 256.671 335.951 298.107 335.951C339.543 335.951 373.131 302.362 373.131 260.926C373.131 219.49 339.543 185.902 298.107 185.902ZM307.873 285.891L307.355 286.021L307.226 286.042V288.996C307.226 302.082 296.856 312.797 283.77 313.228H283.382H282.972C269.735 313.228 258.956 302.621 258.74 289.405V288.996V246.913C258.74 245.814 258.805 244.736 258.956 243.636L258.977 243.442L259.042 242.946C261.435 223.824 277.539 209.207 296.942 208.625L297.524 208.603H298.128C319.881 208.603 337.516 226.173 337.516 247.862C337.494 266.036 325.033 281.536 307.873 285.891Z" fill="black"/>
</svg>
